<svg version="1.0" xmlns="http://www.w3.org/2000/svg"
 viewBox="0 0 358.267391 384.253832"
 preserveAspectRatio="xMidYMid meet">
<g transform="translate(-0.759512,385.000000) rotate(-360.00) scale(0.095238,-0.095238)"
>
<path d="M464 4021 l-77 -20 -59 -32 -60 -32 -50 -43 -50 -42 -47 -66 -47 -66
-28 -73 -28 -72 -5 -105 -5 -105 17 -68 17 -68 32 -66 33 -66 58 -63 59 -64
45 -31 45 -30 30 0 31 0 18 20 18 20 -3 29 -4 29 -63 48 -63 49 -39 52 -40 52
-23 58 -23 57 0 116 -1 115 38 80 38 79 53 52 54 53 51 28 51 28 62 16 62 16
1329 0 1329 0 62 -16 62 -16 50 -28 51 -27 58 -61 58 -61 34 -71 34 -72 0
-1501 0 -1502 -15 -32 -15 -32 7 -27 7 -27 30 -13 31 -12 22 11 22 12 24 44
23 45 3 1494 3 1494 -16 69 -16 69 -39 75 -39 75 -69 68 -69 68 -65 35 -64 34
-81 21 -81 21 -1345 -1 -1345 -1 -77 -20z"/>
<path d="M501 3754 l-40 -14 -41 -27 -40 -27 -27 -35 -27 -35 -20 -47 -21 -46
-7 -48 -7 -47 23 -29 23 -28 25 0 26 0 21 21 21 21 0 29 0 29 26 55 27 54 35
21 35 22 6 0 7 0 2 -1552 3 -1551 29 -54 28 -54 53 -48 54 -48 54 -19 55 -19
681 0 681 0 20 25 20 25 0 17 0 18 -16 23 -17 24 -643 0 -644 -1 -56 11 -55
11 -37 27 -36 28 -19 43 -20 43 0 1576 0 1575 -17 23 -16 24 -55 -1 -54 0 -40
-15z"/>
<path d="M1098 3074 l-16 -23 0 -18 0 -17 20 -25 20 -25 163 0 163 0 18 18 18
18 0 33 0 34 -20 14 -19 15 -165 0 -166 0 -16 -24z"/>
<path d="M1633 3074 l-16 -23 0 -18 0 -17 20 -25 20 -25 266 -3 266 -3 34 6
34 6 16 16 16 16 0 31 0 30 -17 16 -16 17 -303 0 -303 0 -17 -24z"/>
<path d="M2442 3074 l-16 -23 0 -18 0 -17 20 -25 20 -25 96 0 96 0 20 25 21
25 0 17 0 18 -17 23 -16 24 -104 0 -104 0 -16 -24z"/>
<path d="M1103 2678 l-21 -21 0 -25 0 -24 24 -23 24 -23 491 0 490 0 26 26 26
26 0 14 0 15 -22 28 -22 28 -498 0 -497 0 -21 -21z"/>
<path d="M2311 2671 l-22 -28 0 -15 0 -14 26 -26 26 -26 357 0 358 0 21 21 21
21 0 26 0 27 -21 21 -21 21 -362 0 -361 0 -22 -28z"/>
<path d="M1110 2278 l-28 -22 0 -23 0 -23 16 -24 16 -23 234 0 234 0 18 19 17
19 0 26 0 26 -15 21 -15 20 -224 3 -225 4 -28 -23z"/>
<path d="M1781 2278 l-27 -22 0 -23 0 -23 16 -24 16 -23 372 0 371 0 17 23 16
24 0 23 0 23 -28 22 -27 22 -349 0 -349 0 -28 -22z"/>
<path d="M2741 2292 l-16 -5 -13 -17 -13 -17 0 -27 0 -28 19 -18 19 -17 232 0
232 0 17 23 16 24 0 23 0 23 -28 22 -27 22 -212 -1 -211 -1 -15 -6z"/>
<path d="M1098 1867 l-16 -24 0 -23 0 -23 27 -22 28 -21 419 0 419 0 26 25 26
26 0 22 0 21 -21 21 -21 21 -436 0 -435 0 -16 -23z"/>
<path d="M2174 1862 l-22 -28 6 -22 7 -22 22 -19 21 -18 362 3 361 3 15 20 15
21 0 27 0 28 -19 18 -19 17 -364 0 -363 0 -22 -28z"/>
<path d="M1252 1471 l-56 -19 -32 -30 -32 -31 -22 -42 -21 -42 -5 -79 -5 -79
17 -68 18 -68 25 -55 25 -55 28 -13 28 -12 28 16 28 15 -2 42 -1 41 -27 74
-27 73 -1 63 0 63 21 34 20 33 42 13 41 12 27 -6 27 -7 12 -23 13 -24 -1 -79
-2 -79 -28 -105 -28 -105 -5 -34 -5 -35 19 -20 18 -21 31 0 30 0 52 49 52 48
0 -31 0 -31 19 -18 19 -17 28 0 27 0 50 43 50 44 8 -31 9 -30 18 -13 18 -13
158 0 158 0 11 8 12 8 12 23 12 23 -10 26 -10 26 -21 11 -21 12 -90 0 -89 0 0
30 0 31 -28 32 -27 33 -44 0 -44 0 -41 -21 -41 -21 -8 0 -8 0 -6 19 -6 20 -31
13 -31 13 -32 -12 -33 -11 7 22 7 21 0 97 0 97 -17 41 -18 41 -23 26 -23 25
-42 19 -42 20 -42 -1 -42 0 -55 -19z"/>
<path d="M2869 1345 l-33 -9 -57 -27 -57 -28 -49 -53 -49 -53 -29 -60 -28 -60
1 -105 0 -105 29 -59 28 -59 43 -48 42 -49 76 -37 75 -37 65 -6 64 -7 56 14
57 13 48 24 49 25 48 47 48 48 26 55 27 55 13 62 12 61 -13 69 -13 68 -26 52
-26 52 -47 47 -48 48 -69 32 -70 33 -79 3 -80 3 -34 -9z m197 -149 l47 -21 35
-34 35 -33 19 -37 19 -37 8 -49 7 -48 -17 -60 -17 -59 -39 -42 -38 -43 -43
-22 -42 -23 -74 0 -73 0 -55 30 -56 31 -27 35 -26 35 -17 49 -16 48 5 62 6 62
27 46 28 47 35 27 35 26 41 15 41 16 52 0 53 1 47 -22z"/>
<path d="M2534 606 l-22 -23 -101 -176 -101 -175 0 -19 0 -19 16 -23 15 -22
74 -7 75 -8 38 -57 37 -56 26 -7 25 -6 23 10 23 11 108 189 109 189 -4 24 -3
24 -30 21 -29 22 -28 -16 -29 -15 -73 -128 -74 -128 -28 31 -28 31 -27 0 -27
0 0 7 0 7 74 127 73 128 0 23 0 23 -21 21 -21 21 -24 0 -25 0 -21 -24z"/>
<path d="M3323 617 l-21 -11 -7 -12 -8 -11 0 -25 0 -24 73 -127 74 -126 0 -4
0 -4 -28 0 -27 0 -29 -31 -30 -32 -76 132 -76 132 -25 10 -26 10 -23 -13 -23
-12 -7 -11 -8 -12 0 -25 0 -24 90 -159 91 -159 26 -34 25 -35 30 0 30 1 26 31
27 32 18 30 18 30 71 7 72 7 15 15 16 16 6 21 7 21 -107 186 -106 186 -13 12
-12 12 -21 6 -21 6 -21 -12z"/>
</g>
</svg>
