<svg version="1.0" xmlns="http://www.w3.org/2000/svg"
 width="806.076841pt" height="613.063875pt" viewBox="0 0 806.076841 613.063875"
 preserveAspectRatio="xMidYMid meet">
<g transform="translate(0.093250,614.973726) rotate(-360.00) scale(0.095238,-0.095238)"
>
<path d="M865 6446 l-54 -9 -88 -28 -88 -27 -63 -32 -63 -32 -47 -32 -47 -31
-65 -57 -65 -56 -55 -69 -54 -68 -46 -81 -47 -81 -30 -94 -30 -95 -12 -84 -12
-84 3 -2299 3 -2300 23 -80 23 -81 33 -78 32 -77 53 -82 54 -81 76 -77 77 -78
89 -58 90 -59 75 -32 76 -32 80 -23 80 -23 3308 -3 3307 -3 84 12 84 12 84 26
84 26 87 46 86 46 61 46 60 47 65 67 64 68 49 75 49 75 30 68 31 68 21 77 22
77 10 100 11 99 0 2190 0 2189 -11 94 -11 95 -21 77 -21 78 -35 77 -36 76 -40
61 -40 61 -84 88 -83 87 -87 58 -87 58 -91 37 -91 37 -95 19 -96 20 -3308 -1
-3307 -1 -54 -9z m6675 -476 l70 -15 67 -34 67 -33 74 -75 75 -75 32 -68 33
-69 11 -49 11 -49 0 -2271 0 -2272 -17 -57 -17 -58 -31 -60 -32 -60 -63 -62
-62 -63 -73 -38 -72 -38 -71 -15 -71 -15 -3239 0 -3240 0 -73 15 -74 16 -64
32 -64 33 -53 46 -53 47 -42 62 -42 63 -25 71 -24 71 0 2289 0 2289 24 71 25
71 42 63 42 63 53 46 53 47 64 32 64 33 69 15 68 14 3244 1 3245 1 69 -15z"/>
<path d="M1135 5551 l-35 -13 -42 -35 -42 -36 -20 -43 -19 -43 0 -54 0 -54 28
-53 29 -54 1053 -941 1054 -940 -4 -10 -3 -9 -1044 -977 -1045 -978 -26 -44
-27 -44 0 -68 0 -68 28 -48 29 -48 40 -28 40 -28 52 -12 53 -12 42 12 42 11
31 20 32 19 919 859 918 860 142 133 143 134 293 -262 294 -262 37 -19 36 -19
40 -7 40 -8 57 17 56 16 310 278 310 279 6 0 6 0 1060 -1008 1061 -1008 31
-16 31 -16 47 -7 48 -6 50 14 50 14 47 47 48 48 14 50 14 50 -5 42 -6 41 -19
40 -20 40 -1050 997 -1050 997 3 5 2 6 1042 935 1043 934 23 47 24 47 0 62 0
62 -28 51 -27 51 -38 26 -38 25 -46 12 -46 12 -43 -7 -44 -7 -29 -15 -29 -15
-1437 -1290 -1438 -1290 -325 290 -324 291 -1115 997 -1114 998 -39 20 -38 20
-54 3 -53 4 -36 -14z"/>
</g>
</svg>
