<svg xmlns="http://www.w3.org/2000/svg" viewBox="0 0 194.453057 184.092668">
<g transform="translate(-0.042055,184.046334) rotate(-360.00) scale(0.095238,-0.095238)">
<path d="M137 1805 l-137 -127 48 -44 c268 -246 717 -664 717 -668 0 -4 -449
-422 -717 -668 l-48 -44 137 -127 136 -127 379 352 c208 193 383 352 389 352
6 -1 173 -152 373 -337 l362 -337 54 50 c181 167 220 206 211 213 -96 84 -718
667 -718 673 0 8 672 637 713 668 16 12 9 20 -206 218 l-54 50 -362 -337
c-200 -185 -367 -336 -373 -336 -6 0 -181 158 -389 351 l-379 352 -136 -127z"/>
</g>
</svg>