<svg version="1.0" xmlns="http://www.w3.org/2000/svg"
 width="594.000000pt" height="594.000000pt" viewBox="0 0 594.000000 594.000000"
 preserveAspectRatio="xMidYMid meet">
<g transform="translate(-1.000000,718.000000) rotate(-360.00) scale(0.095238,-0.095238)"
fill="#000000" stroke="none">
<path d="M2950 7512 l-26 -27 -3 -388 -3 -387 -1113 0 -1114 0 -30 -31 -31
-31 0 -873 0 -873 31 -31 30 -30 39 0 38 0 20 10 20 11 16 31 16 30 0 788 0
789 2289 0 2289 0 0 -789 0 -788 16 -30 16 -31 20 -11 20 -10 38 0 39 0 30 30
31 31 0 873 0 873 -31 31 -30 31 -1219 0 -1219 0 0 315 0 315 260 -3 260 -3 3
-102 3 -102 -169 0 -169 0 -23 -12 -23 -12 -18 -22 -19 -23 0 -36 0 -37 19
-23 18 -22 23 -12 23 -11 234 0 235 0 24 17 25 17 14 35 15 35 0 202 0 203
-11 39 -11 39 -23 16 -23 16 -410 0 -411 0 -25 -27z"/>
<path d="M1306 6070 l-33 -20 -12 -34 -11 -34 0 -314 0 -314 14 -35 15 -36 33
-17 33 -17 237 3 236 3 31 35 31 34 0 346 0 346 -31 34 -31 35 -239 3 -240 3
-33 -21z m364 -400 l0 -211 -103 3 -102 3 -3 208 -3 207 105 0 106 0 0 -210z"/>
<path d="M2350 6074 l-29 -16 -11 -20 -10 -20 0 -348 0 -348 10 -20 11 -20 31
-16 30 -16 223 0 222 0 34 16 34 17 12 26 12 26 0 343 0 344 -19 22 -18 23
-23 11 -23 12 -229 0 -229 -1 -28 -15z m359 -404 l0 -210 -100 0 -99 0 0 210
0 210 99 0 100 0 0 -210z"/>
<path d="M3397 6078 l-21 -12 -18 -22 -19 -22 0 -344 0 -343 12 -26 12 -26 34
-17 34 -16 222 0 223 0 30 16 31 16 11 20 11 20 0 348 0 348 -11 20 -11 20
-31 16 -30 16 -229 0 -229 -1 -21 -11z m352 -408 l0 -210 -100 0 -100 0 0 210
0 210 100 0 100 0 0 -210z"/>
<path d="M4446 6080 l-23 -9 -22 -29 -22 -28 0 -345 0 -345 30 -34 31 -35 236
-3 237 -3 33 17 33 17 15 36 15 35 0 316 0 316 -15 35 -15 36 -32 17 -32 16
-224 -1 -223 0 -22 -9z m350 -407 l-3 -208 -102 -3 -102 -3 0 211 0 210 105 0
105 0 -3 -207z"/>
<path d="M456 4595 l-36 -36 0 -28 0 -28 15 -28 15 -29 27 -13 28 -12 62 0 63
0 0 -1250 0 -1249 -63 0 -62 0 -28 -13 -27 -13 -15 -29 -15 -28 0 -22 0 -23
15 -28 15 -29 27 -13 28 -12 541 0 541 0 30 15 31 16 11 20 10 21 0 33 0 32
-10 21 -11 20 -31 16 -30 16 -64 0 -63 0 0 1249 0 1250 1669 0 1670 0 0 -1250
0 -1249 -64 0 -64 0 -30 -16 -31 -16 -11 -20 -11 -21 0 -32 0 -33 11 -21 11
-20 31 -16 30 -15 541 0 541 0 28 12 27 13 15 29 15 28 0 22 0 23 -15 28 -15
29 -27 13 -28 13 -62 0 -63 0 0 1249 0 1250 63 0 62 0 28 12 27 13 15 29 15
28 0 28 0 28 -36 36 -35 36 -2638 0 -2638 0 -35 -36z m794 -1424 l0 -1249
-205 0 -205 0 0 1249 0 1250 205 0 205 0 0 -1250z m4168 0 l0 -1249 -205 0
-204 0 0 1249 0 1250 204 0 205 0 0 -1250z"/>
<path d="M2861 3986 l-84 -14 -67 -18 -67 -18 -70 -26 -69 -26 -70 -41 -70
-42 -32 -32 -32 -33 0 -771 0 -772 30 -31 31 -30 37 0 38 0 34 30 34 31 6 728
5 728 52 28 53 29 84 26 84 26 58 10 57 11 61 7 60 7 0 -520 0 -519 -31 -7
-32 -6 -21 -34 -22 -35 5 -35 6 -36 17 -18 17 -19 30 -13 30 -12 3 -178 3
-179 30 -25 29 -26 41 0 41 1 29 25 30 25 3 179 3 178 30 12 30 13 17 19 17
18 6 36 5 35 -22 35 -21 34 -32 6 -31 7 0 519 0 520 60 -7 61 -7 58 -11 57
-10 84 -26 84 -26 53 -29 52 -28 6 -728 5 -728 34 -31 34 -31 38 1 37 0 31 30
31 31 0 772 0 772 -36 35 -36 35 -77 44 -77 43 -95 32 -94 31 -79 17 -79 18
-220 4 -221 4 -84 -14z"/>
<path d="M1933 1907 l-25 -14 -14 -25 -14 -25 0 -24 0 -25 14 -28 15 -29 28
-13 27 -12 1166 0 1166 0 28 14 29 15 13 28 13 27 0 21 -1 20 -12 27 -13 28
-29 15 -28 15 -1169 -1 -1169 0 -25 -14z"/>
<path d="M38 1474 l-27 -28 -1 -46 0 -46 26 -26 26 -26 3067 0 3067 0 26 26
26 26 0 46 0 46 -28 28 -28 28 -3063 0 -3063 0 -28 -28z"/>
</g>
</svg>
