<svg version="1.0" xmlns="http://www.w3.org/2000/svg" viewBox="0 0 1280.000000 364.206164" class="mask-b-2">
<g transform="translate(-0.000000,364.788320) rotate(-360.00) scale(0.095238,-0.095238)"
fill="#000000" stroke="none">
<path d="M9597 3825 c-904 -25 -1758 -121 -3664 -412 -1501 -229 -2140 -306
-2884 -347 -258 -14 -897 -14 -1101 0 -739 52 -1296 178 -1821 414 l-127 57 0
-1679 c0 -1589 1 -1678 18 -1684 32 -9 317 -57 470 -79 462 -65 861 -89 1465
-89 1047 0 1813 72 3911 367 1763 247 2341 313 3308 375 287 18 1345 18 1596
-1 806 -58 1433 -167 2063 -357 176 -53 457 -150 549 -190 28 -12 53 -21 56
-21 2 0 4 659 4 1465 l0 1465 -139 66 c-1003 476 -2230 691 -3704 650z"/>
</g>
</svg>
