<?xml version="1.0" standalone="no"?>
<!DOCTYPE svg PUBLIC "-//W3C//DTD SVG 20010904//EN"
 "http://www.w3.org/TR/2001/REC-SVG-20010904/DTD/svg10.dtd">
<svg version="1.0" xmlns="http://www.w3.org/2000/svg"
 width="1280.000000pt" height="526.000000pt" viewBox="0 0 1280.000000 526.000000"
 preserveAspectRatio="xMidYMid meet">
<metadata>
Created by Potrace Professional 1.1m
</metadata>
<g transform="translate(-0.000000,527.000000) rotate(-360.00) scale(0.095238,-0.095238)"
fill="#000000" stroke="none">
<path d="M0 3014 l0 -2519 79 46 c386 228 865 355 1575 417 205 17 1065 17
1328 -1 989 -67 1718 -156 3528 -433 1375 -210 1840 -277 2378 -345 946 -118
1623 -168 2271 -169 749 0 1295 72 1761 232 137 46 366 152 461 213 l59 38 0
2520 0 2521 -6720 0 -6720 0 0 -2520z"/>
</g>
</svg>
