<svg version="1.0" xmlns="http://www.w3.org/2000/svg" viewBox="0 0 788.668770 790.245945"
 preserveAspectRatio="xMidYMid meet">
<g transform="translate(-0.527432,791.982621) rotate(-360.00) scale(0.095238,-0.095238)"
>
<path d="M4512 8301 l-39 -14 -25 -17 -26 -17 -26 -34 -25 -34 -13 -41 -14
-41 6 -50 6 -51 16 -30 15 -29 30 -30 29 -29 29 -16 30 -15 123 -25 124 -25
110 -28 110 -27 144 -48 145 -47 125 -51 125 -52 147 -73 148 -74 123 -75 124
-74 105 -75 105 -75 74 -57 73 -58 79 -68 79 -69 93 -90 93 -89 102 -116 102
-115 73 -95 74 -94 68 -100 69 -100 76 -128 75 -129 83 -171 82 -170 53 -142
53 -142 42 -143 41 -143 38 -181 38 -181 28 -40 29 -39 32 -22 31 -22 53 -12
53 -12 61 17 60 18 41 41 41 41 17 59 18 59 -33 165 -33 164 -37 134 -37 133
-51 151 -51 150 -64 150 -65 150 -43 86 -43 86 -68 121 -69 120 -68 105 -68
105 -89 121 -90 121 -79 94 -80 95 -100 105 -99 105 -116 109 -116 109 -136
109 -137 110 -162 108 -163 109 -104 60 -105 59 -122 62 -123 61 -135 57 -136
57 -123 43 -124 44 -155 42 -154 43 -152 31 -153 31 -26 -1 -26 0 -40 -14z"/>
<path d="M1439 7822 l-46 -10 -53 -17 -54 -17 -63 -32 -63 -31 -63 -45 -63
-45 -368 -371 -369 -371 -55 -79 -55 -79 -45 -89 -45 -89 -27 -82 -27 -82 -19
-91 -18 -92 0 -225 0 -226 19 -121 18 -121 26 -115 26 -114 37 -127 38 -127
61 -162 61 -163 65 -152 65 -153 114 -225 114 -226 106 -178 106 -177 128
-190 127 -189 139 -184 139 -185 111 -136 112 -137 151 -168 150 -168 224
-220 225 -221 148 -128 149 -127 124 -99 125 -99 140 -103 141 -102 179 -119
180 -118 132 -78 131 -78 147 -80 147 -80 184 -89 183 -89 140 -59 139 -58
146 -52 145 -52 156 -43 156 -42 142 -26 142 -26 131 -12 131 -13 126 6 126 6
87 17 86 17 82 26 81 27 97 48 97 49 78 58 78 59 372 378 371 378 33 48 34 49
37 73 36 73 23 83 24 83 0 116 0 115 -23 82 -23 82 -36 70 -35 71 -48 63 -47
63 -550 553 -549 553 -67 44 -67 44 -64 29 -65 29 -69 17 -69 17 -109 0 -110
0 -76 -21 -75 -21 -57 -25 -58 -26 -66 -44 -67 -45 -315 -313 -316 -313 -11 0
-12 -1 -135 71 -135 70 -126 83 -126 84 -141 108 -142 108 -126 108 -126 108
-189 189 -189 190 -124 142 -124 143 -89 115 -89 114 -99 147 -99 147 -72 140
-73 140 302 303 301 303 50 66 50 67 34 68 35 68 23 74 22 73 6 95 6 95 -18
89 -18 89 -41 87 -41 88 -49 70 -49 70 -536 537 -537 537 -68 49 -68 50 -58
29 -58 29 -73 23 -74 24 -120 3 -121 4 -47 -10z m283 -498 l58 -28 546 -548
547 -548 31 -57 31 -58 0 -79 0 -79 -31 -63 -31 -63 -258 -257 -258 -258 -102
-99 -103 -99 -28 -57 -28 -57 -5 -57 -4 -58 13 -59 13 -59 48 -105 47 -105 58
-105 57 -105 97 -147 98 -147 93 -123 93 -122 115 -135 116 -135 149 -158 149
-159 155 -143 156 -142 84 -70 84 -70 144 -109 144 -109 129 -86 129 -87 178
-94 179 -94 49 -26 49 -25 56 -7 56 -7 56 8 56 9 44 22 43 21 363 361 363 360
67 32 68 32 69 0 69 1 57 -28 57 -28 552 -552 552 -553 30 -63 30 -63 1 -73 1
-74 -36 -73 -36 -74 -264 -262 -264 -263 -57 -67 -57 -66 -63 -50 -63 -50 -59
-33 -59 -33 -75 -26 -76 -25 -79 -11 -79 -11 -81 0 -81 0 -130 16 -130 16
-101 21 -100 22 -131 37 -132 37 -141 52 -142 53 -121 53 -121 52 -199 100
-200 100 -157 89 -158 89 -157 100 -158 100 -120 85 -121 84 -121 91 -121 91
-115 94 -116 95 -147 131 -147 131 -172 172 -172 173 -127 142 -127 143 -112
135 -111 136 -134 179 -135 178 -139 210 -139 210 -101 177 -101 176 -68 135
-67 135 -49 109 -49 108 -61 153 -60 152 -53 163 -52 162 -27 121 -27 121 -13
84 -13 84 0 178 -1 179 19 84 20 84 34 75 35 75 34 51 34 51 348 349 347 350
50 32 50 32 45 15 44 14 63 -3 64 -4 57 -29z"/>
<path d="M4468 6805 l-32 -8 -31 -17 -32 -16 -28 -30 -28 -30 -17 -39 -16 -39
0 -53 0 -53 16 -39 17 -39 31 -33 32 -33 39 -16 38 -16 130 -28 129 -28 107
-36 107 -37 139 -68 140 -67 91 -59 92 -60 89 -69 89 -69 111 -111 111 -110
75 -98 76 -99 60 -96 59 -96 60 -126 60 -126 39 -112 38 -113 30 -134 29 -135
16 -31 17 -31 29 -28 30 -28 34 -17 33 -16 64 0 64 0 40 20 40 20 37 42 38 41
12 57 13 56 -28 134 -28 135 -42 133 -43 133 -50 117 -51 118 -59 107 -60 108
-64 95 -64 96 -79 100 -79 99 -121 121 -121 121 -89 72 -90 71 -126 84 -126
84 -163 82 -164 81 -123 44 -123 43 -104 27 -105 26 -81 16 -82 15 -10 -1 -11
-1 -31 -7z"/>
</g>
</svg>
