<?xml version="1.0" standalone="no"?>
<!DOCTYPE svg PUBLIC "-//W3C//DTD SVG 20010904//EN"
 "http://www.w3.org/TR/2001/REC-SVG-20010904/DTD/svg10.dtd">
<svg version="1.0" xmlns="http://www.w3.org/2000/svg"
 width="594.060544pt" height="376.000000pt" viewBox="0 0 594.060544 376.000000"
 preserveAspectRatio="xMidYMid meet">
<metadata>
Created by Potrace Professional 1.1m
</metadata>
<g transform="translate(-1.000000,609.000000) rotate(-360.00) scale(0.095238,-0.095238)"
fill="#000000" stroke="none">
<path d="M541 6380 l-32 -14 -28 -31 -28 -30 -17 -39 -16 -39 0 -920 0 -920
31 -30 30 -31 37 0 37 0 30 25 29 26 6 911 5 912 1879 0 1880 0 5 -913 6 -914
2 -2 2 -2 23 -22 23 -21 36 0 35 0 22 11 21 12 15 35 15 36 0 53 0 53 622 -3
622 -3 47 -24 47 -25 25 -23 25 -22 30 -47 31 -47 0 -7 0 -8 -169 -3 -169 -4
-32 -35 -32 -36 4 -159 5 -158 28 -54 28 -54 49 -43 49 -44 53 -15 53 -16 77
0 77 0 0 -215 0 -215 -126 0 -125 0 -44 83 -43 84 -69 69 -69 69 -85 42 -85
41 -74 16 -73 15 -53 0 -52 0 -72 -15 -73 -15 -80 -40 -80 -39 -74 -74 -75
-75 -40 -81 -40 -80 -19 0 -19 -1 -3 388 -3 387 -21 24 -21 23 -25 10 -25 9
-35 -11 -35 -12 -16 -23 -16 -22 0 -386 0 -386 -1016 0 -1016 1 -39 81 -38 80
-72 72 -71 71 -84 42 -84 41 -74 16 -73 15 -53 0 -52 0 -74 -15 -73 -16 -79
-39 -79 -40 -74 -73 -73 -74 -42 -81 -42 -81 -281 0 -280 0 0 110 0 110 225 0
226 0 33 30 34 30 0 40 0 39 -34 30 -33 30 -498 0 -498 0 -32 -27 -32 -27 0
-44 0 -43 13 -17 13 -17 23 -12 23 -12 167 0 168 0 4 -140 3 -140 29 -43 29
-44 45 -24 44 -24 292 -3 291 -3 0 -45 0 -44 16 -63 16 -62 33 -68 33 -69 85
-85 85 -85 68 -33 68 -33 63 -16 62 -15 89 0 88 0 64 16 65 17 73 38 74 38 74
75 75 74 38 78 39 78 15 74 16 73 0 29 0 29 1103 0 1102 0 0 -45 0 -45 16 -63
16 -62 33 -68 33 -69 85 -85 85 -85 68 -33 68 -33 63 -16 62 -15 89 -1 88 0
64 17 65 17 73 38 74 38 75 75 74 75 39 78 38 77 15 74 16 73 0 28 0 29 178 3
177 3 28 26 27 26 -3 615 -3 615 -38 79 -39 78 -46 48 -46 48 -48 33 -48 33
-54 21 -54 22 -21 0 -21 0 -10 23 -10 24 -74 297 -74 297 38 36 39 36 -5 118
-5 119 -20 47 -19 47 -30 45 -30 45 -52 41 -52 41 -60 24 -61 24 -407 4 -406
4 0 107 0 108 -16 52 -16 52 -29 27 -29 28 -33 17 -34 17 -1930 -1 -1930 0
-31 -14z m4838 -606 l40 -11 38 -33 38 -34 19 -42 19 -42 0 -23 1 -24 -473 0
-472 0 0 110 0 111 375 -1 375 0 40 -11z m151 -718 l76 -305 1 -13 0 -13 -509
0 -509 0 0 320 0 321 432 -3 432 -3 77 -304z m529 -1050 l0 -110 -68 0 -68 0
-28 12 -27 13 -15 29 -15 28 0 69 0 69 110 0 111 0 0 -110z m-4112 -560 l68
-32 48 -44 48 -44 39 -80 39 -79 0 -100 0 -101 -25 -60 -24 -61 -58 -63 -57
-62 -66 -33 -66 -32 -59 -8 -60 -8 -63 9 -63 8 -60 29 -60 28 -53 53 -54 53
-28 60 -28 60 -9 63 -9 64 8 57 8 58 27 57 26 58 50 53 49 53 36 22 36 23 60
20 59 19 86 -4 87 -4 68 -32z m3444 0 l68 -32 48 -44 48 -44 39 -80 39 -79 0
-100 -1 -101 -24 -61 -24 -61 -62 -66 -62 -66 -64 -29 -64 -29 -57 -7 -57 -8
-63 9 -63 8 -60 29 -60 28 -53 53 -54 53 -30 63 -31 63 0 116 0 115 28 60 28
60 50 53 49 53 36 22 36 23 60 20 59 19 86 -4 87 -4 68 -32z"/>
<path d="M1703 3254 l-25 -10 -31 -21 -30 -22 -23 -44 -22 -44 0 -53 0 -53 13
-26 14 -25 27 -30 28 -30 31 -16 31 -16 53 0 53 0 44 22 45 23 28 42 28 43 5
55 4 55 -21 42 -21 41 -25 22 -24 23 -34 17 -33 17 -46 -1 -45 -1 -24 -10z"/>
<path d="M5147 3255 l-25 -11 -31 -21 -30 -22 -18 -33 -17 -34 -8 -35 -8 -35
14 -52 13 -52 30 -32 31 -32 31 -16 31 -16 53 -1 53 0 44 23 45 23 29 44 29
43 0 71 0 71 -22 29 -22 29 -38 31 -39 32 -61 3 -60 3 -24 -10z"/>
<path d="M2858 5015 l-449 -447 -10 0 -10 0 -237 236 -237 236 -34 0 -34 0
-25 -16 -24 -17 -13 -30 -12 -30 7 -24 7 -25 285 -286 285 -286 42 0 42 0 496
496 497 496 0 39 0 39 -24 27 -24 27 -40 7 -40 6 -448 -448z"/>
<path d="M277 4095 l-22 -9 -23 -28 -22 -29 0 -20 0 -20 16 -31 16 -30 20 -11
20 -11 658 0 658 0 30 31 31 30 0 33 0 33 -11 22 -12 21 -35 15 -36 15 -633
-1 -633 -1 -22 -9z"/>
<path d="M2566 3675 l-23 -9 -17 -24 -16 -24 0 -34 0 -34 25 -29 25 -30 760
-3 759 -2 30 12 29 12 15 29 16 30 0 17 0 17 -15 28 -15 29 -28 13 -27 13
-748 -1 -748 -1 -22 -9z"/>
</g>
</svg>
