<?xml version="1.0" standalone="no"?>
<!DOCTYPE svg PUBLIC "-//W3C//DTD SVG 20010904//EN"
 "http://www.w3.org/TR/2001/REC-SVG-20010904/DTD/svg10.dtd">
<svg version="1.0" xmlns="http://www.w3.org/2000/svg"
 width="799.916309pt" height="799.154298pt" viewBox="0 0 799.916309 799.154298"
 preserveAspectRatio="xMidYMid meet">
<metadata>
Created by Potrace Professional 1.1m
</metadata>
<g transform="translate(-40.083691,880.267211) rotate(-360.00) scale(0.095238,-0.095238)"
fill="#000000" stroke="none">
<path d="M4753 9207 c-4 -19 -21 -144 -38 -277 -18 -133 -34 -259 -37 -280 -6
-46 -28 -37 215 -88 634 -133 1175 -374 1685 -750 347 -256 680 -602 926 -963
311 -456 504 -887 635 -1420 52 -211 63 -235 102 -227 15 3 58 10 96 17 259
42 483 93 483 109 0 63 -99 458 -162 650 -204 615 -502 1149 -903 1619 -116
136 -368 389 -518 520 -559 490 -1183 819 -1929 1016 -223 59 -398 97 -479
104 l-70 6 -6 -36z"/>
<path d="M1661 8416 c-149 -42 -318 -186 -767 -650 -304 -315 -385 -430 -431
-612 -226 -885 482 -2520 1677 -3871 731 -826 1583 -1480 2548 -1955 632 -311
1133 -461 1586 -475 217 -6 347 6 484 45 139 40 208 77 324 174 140 116 729
705 818 818 90 115 116 189 116 341 0 145 -29 234 -110 335 -187 235 -1047
1088 -1240 1230 -77 57 -165 82 -287 83 -102 0 -185 -16 -252 -49 -74 -37
-229 -176 -641 -574 -231 -224 -265 -253 -288 -248 -47 11 -402 191 -510 259
-574 359 -1352 1118 -1757 1715 -159 234 -338 565 -337 626 0 42 56 108 357
419 340 351 418 443 470 554 26 56 28 70 28 207 0 144 -1 149 -33 216 -53 109
-153 223 -565 639 -555 560 -719 706 -853 758 -78 30 -253 38 -337 15z"/>
<path d="M4669 7536 c-24 -133 -80 -590 -73 -596 5 -5 74 -26 155 -47 217 -56
319 -93 494 -178 473 -230 837 -596 1057 -1063 50 -105 100 -249 161 -457 32
-109 10 -102 245 -71 189 25 369 60 387 76 33 27 3 177 -85 434 -146 424 -337
736 -653 1064 -172 178 -306 291 -500 421 -254 169 -495 282 -785 368 -73 21
-359 83 -385 83 -7 0 -15 -15 -18 -34z"/>
</g>
</svg>
