<?xml version="1.0" standalone="no"?>
<!DOCTYPE svg PUBLIC "-//W3C//DTD SVG 20010904//EN"
 "http://www.w3.org/TR/2001/REC-SVG-20010904/DTD/svg10.dtd">
<svg version="1.0" xmlns="http://www.w3.org/2000/svg"
 width="753.844106pt" height="811.015443pt" viewBox="0 0 753.844106 811.015443"
 preserveAspectRatio="xMidYMid meet">
<metadata>
Created by Potrace Professional 1.1m
</metadata>
<g transform="translate(-0.023478,813.038354) rotate(-360.00) scale(0.095238,-0.095238)"
fill="#000000" stroke="none">
<path d="M142 8517 c-54 -25 -117 -94 -131 -145 -26 -93 -6 -169 61 -235 45
-44 93 -66 634 -293 l585 -246 3 -2673 c3 -2514 4 -2676 21 -2736 99 -336 322
-575 641 -683 38 -13 92 -27 118 -31 26 -4 47 -12 47 -17 0 -5 -14 -37 -30
-70 -90 -179 -118 -389 -79 -591 62 -329 312 -618 626 -722 172 -56 307 -67
475 -38 491 86 843 555 783 1042 -13 106 -60 265 -96 326 -11 19 -20 39 -20
45 0 6 401 10 1055 10 581 0 1056 -2 1056 -5 -1 -2 -14 -31 -31 -65 -89 -184
-117 -391 -79 -593 63 -330 313 -618 627 -722 133 -44 233 -58 359 -51 432 25
780 321 884 751 23 95 23 308 0 403 -45 184 -132 343 -259 470 -123 123 -263
203 -449 256 l-81 23 -2363 5 -2362 5 -58 26 c-119 52 -207 132 -258 233 -53
105 -57 135 -57 510 0 192 2 350 4 350 2 0 40 -17 85 -38 44 -21 119 -48 167
-60 l85 -23 2494 0 2494 0 89 23 c395 105 679 432 725 835 7 64 10 449 8 1122
l-3 1024 -32 52 c-19 30 -51 63 -79 80 -45 28 -136 41 -3039 442 l-2993 412
-5 452 -5 451 -29 48 c-28 49 -60 76 -118 102 -18 8 -323 137 -679 286 -703
296 -699 295 -791 253z m4489 -2464 c1533 -211 2793 -385 2801 -388 11 -4 13
-180 10 -932 l-3 -927 -24 -62 c-65 -174 -208 -299 -379 -331 -37 -7 -862 -11
-2439 -11 -2644 0 -2464 -5 -2588 70 -34 20 -75 49 -92 65 -48 45 -110 147
-132 220 -20 66 -21 100 -21 1380 l0 1312 39 -6 c22 -4 1294 -179 2828 -390z
m-1595 -4604 c250 -46 429 -297 388 -544 -44 -260 -294 -444 -544 -402 -261
44 -446 293 -404 544 44 268 299 450 560 402z m3769 0 c250 -46 430 -297 388
-544 -44 -260 -293 -444 -544 -402 -261 44 -445 293 -403 544 44 268 298 450
559 402z"/>
</g>
</svg>
