<?xml version="1.0" standalone="no"?>
<!DOCTYPE svg PUBLIC "-//W3C//DTD SVG 20010904//EN"
 "http://www.w3.org/TR/2001/REC-SVG-20010904/DTD/svg10.dtd">
<svg version="1.0" xmlns="http://www.w3.org/2000/svg"
 width="554.869273pt" height="979.745696pt" viewBox="0 0 554.869273 979.745696"
 preserveAspectRatio="xMidYMid meet">
<metadata>
Created by Potrace Professional 1.1m
</metadata>
<g transform="translate(-0.384882,979.942175) rotate(-360.00) scale(0.095238,-0.095238)"
fill="#000000" stroke="none">
<path d="M536 10274 c-101 -22 -227 -88 -307 -161 -256 -235 -298 -609 -103
-901 19 -28 937 -954 2041 -2059 l2007 -2008 -2023 -2024 c-1987 -1989 -2022
-2025 -2064 -2108 -60 -117 -80 -199 -80 -325 0 -126 20 -210 78 -320 113
-216 323 -350 571 -365 122 -7 224 15 342 71 l89 44 2306 2305 c1809 1808
2315 2319 2345 2369 65 110 92 213 92 353 0 102 -4 134 -27 205 -58 177 -3
117 -1330 1447 -673 675 -1710 1710 -2305 2300 l-1081 1074 -89 44 c-147 72
-306 92 -462 59z"/>
</g>
</svg>
