<svg version="1.0" xmlns="http://www.w3.org/2000/svg" viewBox="0 0 511.169130 476.501054"
 preserveAspectRatio="xMidYMid meet">
<g transform="translate(0.176606,478.102597) rotate(-360.00) scale(0.095238,-0.095238)">
<path d="M2599 5003 l-31 -17 -116 -112 -116 -113 -110 -89 -110 -90 -89 -64
-90 -64 -126 -77 -126 -76 -141 -67 -141 -68 -153 -51 -153 -50 -105 -22 -106
-21 -120 -11 -120 -10 -26 -19 -25 -20 -20 -25 -19 -26 -10 -63 -10 -63 -17
-168 -16 -168 -6 -294 -6 -294 12 -162 12 -163 16 -126 16 -126 31 -158 32
-157 27 -100 27 -100 46 -132 46 -132 47 -107 46 -107 -375 0 -374 0 -26 -13
-26 -13 -25 -37 -25 -36 5 -47 5 -47 67 -63 67 -64 71 -64 72 -64 -124 -113
-124 -113 -19 -28 -18 -27 0 -37 0 -37 21 -35 21 -34 37 -15 36 -15 728 -1
728 0 103 -68 103 -69 117 -57 117 -57 111 -37 111 -37 104 -23 104 -23 247 0
247 0 104 23 104 23 110 37 111 37 106 51 105 51 113 75 114 74 724 1 725 0
36 15 36 15 21 34 21 35 0 37 0 37 -18 27 -18 28 -124 113 -125 113 72 64 72
64 68 65 68 65 0 58 0 59 -34 34 -34 34 -395 3 -394 3 5 13 6 13 47 112 47
113 37 113 36 113 28 109 27 109 20 96 20 97 21 152 21 151 13 173 12 173 -6
305 -6 305 -16 159 -16 159 -11 76 -11 75 -21 31 -22 30 -32 17 -33 17 -103 9
-104 9 -65 11 -66 12 -105 27 -105 27 -110 41 -110 41 -137 67 -136 66 -113
69 -112 68 -92 66 -93 65 -96 78 -97 77 -149 138 -148 138 -49 4 -49 4 -31
-17z m137 -216 l62 -64 108 -93 107 -93 118 -89 119 -89 126 -80 126 -81 173
-86 174 -87 126 -44 125 -45 124 -30 123 -30 81 -11 82 -11 59 -6 58 -6 17
-165 18 -165 12 -194 12 -194 -7 -231 -6 -231 -16 -152 -16 -153 -27 -151 -26
-151 -27 -106 -26 -106 -27 -89 -27 -90 -47 -120 -46 -121 -65 -131 -65 -132
-87 -130 -86 -130 -73 -85 -72 -85 -72 -69 -72 -69 -81 -64 -80 -64 -90 -54
-90 -54 -87 -40 -87 -40 -99 -32 -100 -32 -89 -19 -90 -20 -215 0 -215 0 -109
25 -108 24 -106 37 -106 37 -82 41 -83 41 -70 43 -71 44 -79 60 -79 60 -82 77
-82 76 -84 101 -84 101 -61 90 -61 91 -60 105 -59 106 -57 131 -57 131 -41
124 -42 125 -32 127 -32 128 -26 151 -27 150 -16 158 -16 157 -6 210 -7 210
13 205 12 205 16 147 16 146 2 3 3 2 104 12 105 11 100 20 101 21 94 27 93 27
121 48 121 48 121 60 120 61 116 70 115 71 109 79 109 79 112 92 111 91 100
96 100 95 5 0 6 1 63 -64z m-1748 -3743 l54 -91 79 -105 78 -105 90 -93 89
-93 -584 0 -584 0 111 101 111 101 10 19 10 19 0 45 0 46 -17 23 -16 23 -55
51 -54 50 -53 49 -52 50 364 0 364 0 55 -90z m4120 40 l-52 -49 -55 -50 -54
-51 -17 -23 -16 -23 0 -46 0 -45 10 -19 10 -19 111 -101 111 -102 -580 1 -579
0 20 23 20 24 59 64 58 63 70 94 70 94 65 107 65 108 368 0 369 0 -53 -50z"/>
<path d="M2590 4523 l-48 -34 -130 -106 -130 -106 -99 -69 -99 -69 -110 -65
-110 -66 -19 -16 -18 -16 0 -38 0 -39 18 -16 19 -17 22 -6 22 -7 72 38 73 38
147 98 147 98 126 100 126 101 33 27 33 27 121 -99 120 -99 104 -74 103 -73
84 -52 84 -53 126 -69 126 -69 132 -57 131 -57 115 -39 116 -39 125 -31 126
-30 17 0 18 0 6 -66 7 -66 7 -267 7 -268 -13 -173 -13 -174 -20 -147 -21 -147
-27 -120 -27 -121 -36 -118 -35 -118 0 -17 0 -16 25 -26 26 -26 32 0 32 1 19
19 19 19 28 88 27 89 27 105 26 105 21 121 22 120 16 132 17 131 6 322 6 322
-13 171 -13 171 -14 34 -14 34 -30 15 -29 15 -110 23 -109 23 -89 26 -89 26
-101 37 -101 38 -110 50 -110 50 -125 70 -125 70 -89 59 -89 58 -106 79 -107
79 -96 82 -95 82 -29 11 -28 11 -19 0 -19 0 -48 -34z"/>
<path d="M1502 3837 l-90 -37 -116 -35 -117 -36 -114 -23 -115 -23 -28 -15
-29 -14 -15 -30 -15 -29 -12 -141 -11 -140 0 -263 0 -263 11 -126 11 -126 21
-147 21 -147 32 -142 32 -142 47 -146 48 -146 50 -117 51 -116 53 -97 53 -98
39 -60 38 -60 64 -84 64 -84 79 -82 79 -83 78 -66 79 -65 92 -60 92 -60 88
-41 88 -41 95 -31 96 -32 92 -18 92 -18 168 0 168 1 108 23 107 22 76 28 77
27 86 41 86 41 109 73 110 73 106 101 107 101 64 80 65 81 65 100 66 99 48 93
49 92 0 29 0 29 -25 23 -24 23 -32 0 -31 0 -22 -24 -21 -23 -49 -96 -49 -96
-66 -95 -66 -96 -73 -85 -72 -85 -87 -75 -87 -74 -60 -41 -61 -41 -94 -48 -95
-48 -89 -30 -88 -30 -89 -17 -88 -16 -134 0 -134 0 -90 17 -90 16 -82 27 -82
26 -105 52 -105 53 -99 70 -99 71 -97 97 -97 97 -72 97 -73 98 -42 69 -43 69
-55 109 -55 109 -46 117 -46 118 -37 130 -37 129 -31 158 -30 157 -19 158 -18
157 -1 331 0 331 8 79 9 78 95 19 96 19 119 36 119 37 111 43 111 44 15 30 15
29 -6 27 -7 26 -22 16 -22 16 -27 -1 -26 0 -89 -37z"/>
<path d="M2567 3700 l-31 -17 -30 -28 -31 -27 -137 -277 -138 -276 -18 -10
-18 -10 -289 -41 -289 -42 -40 -17 -39 -16 -28 -27 -28 -27 -23 -53 -23 -54 5
-54 6 -55 15 -30 16 -30 211 -207 211 -208 15 -24 16 -23 -26 -152 -26 -152 0
-19 0 -19 26 -26 26 -26 26 1 26 0 27 23 26 24 29 174 28 173 -14 52 -14 52
-235 232 -234 231 0 23 0 22 23 27 24 27 299 43 299 43 32 16 31 16 36 33 35
33 134 275 134 275 28 7 27 7 27 -7 28 -7 130 -267 130 -266 33 -38 33 -38 38
-20 38 -19 299 -43 299 -43 24 -27 24 -27 0 -22 0 -23 -235 -231 -235 -232
-14 -52 -14 -53 49 -294 50 -294 0 -27 0 -27 -19 -16 -18 -16 -20 -7 -20 -7
-179 94 -180 93 -103 54 -102 54 -63 0 -63 0 -102 -54 -103 -54 -180 -93 -179
-94 -26 10 -25 9 -12 15 -11 14 -8 26 -7 26 -17 19 -16 18 -38 0 -39 0 -20
-22 -19 -21 1 -41 2 -41 12 -24 13 -24 25 -34 26 -35 41 -21 41 -21 46 -6 46
-6 39 12 39 13 256 136 257 135 21 0 21 0 255 -135 256 -135 35 -12 35 -12 37
0 38 0 48 22 47 21 24 23 25 23 19 37 19 38 7 36 6 36 -52 304 -53 305 16 23
15 24 211 207 212 208 19 42 20 42 0 48 0 47 -25 52 -25 53 -25 23 -25 23 -40
17 -39 16 -289 42 -289 41 -18 10 -18 9 -135 272 -134 271 -28 30 -28 30 -39
20 -39 20 -66 0 -66 -1 -32 -16z"/>
</g>
</svg>
