<svg version="1.0" xmlns="http://www.w3.org/2000/svg" viewBox="0 0 51.796929 52.425890" preserveAspectRatio="xMidYMid meet">
<g transform="translate(-0.171392,52.556577) rotate(-360.00) scale(0.095238,-0.095238)"
fill="#000000" stroke="none">
<path d="M207 542 c-111 -31 -192 -127 -204 -241 -21 -209 206 -366 393 -271
97 49 149 135 150 243 0 186 -166 317 -339 269z m178 -39 c186 -90 186 -366 0
-454 -117 -56 -245 -19 -318 90 -81 121 -43 282 85 355 68 39 163 43 233 9z"/>
<path d="M227 371 c-11 -12 -7 -180 4 -188 15 -8 126 75 126 95 0 8 -22 30
-50 50 -65 47 -72 51 -80 43z m94 -108 c-8 -9 -30 -25 -47 -35 l-32 -19 0 69
0 70 47 -34 c42 -30 45 -36 32 -51z"/>
</g>
</svg>
